# xmcd CD database file generated by OrangeCD 5.2
#
# Track frame offsets:
#	225
#	13441
#	29999
#	43311
#	57776
#	71982
#	89227
#	106297
#	122032
#	133835
#	149720
#	161748
#	176861
#	192384
#
# Disc length: 2777 seconds
#
# Revision: 3
# Processed by: cddbd v1.5.1PL0 Copyright (c) Steve Scherf et al.
# Submitted via: OrangeCD 5.2
#
DISCID=f00ad60e
DTITLE=Scooter Lee - Would You Consider
DYEAR=1999
DGENRE=Country
TTITLE0=Would You Consider
TTITLE1=Jai' du boogie
TTITLE2=Walk On By
TTITLE3=If You Love Me
TTITLE4=Please, Please
TTITLE5=Wasn't That A Party
TTITLE6=I Still Believe
TTITLE7=You're On Your Own
TTITLE8=If You Don't Straighten Up
TTITLE9=(I Never Promised You A) Rose Garden
TTITLE10=Jam Up and Jelly Tight
TTITLE11=Baby Please Come Home
TTITLE12=Jam Up and Jelly Tight (Dance Mix)
TTITLE13=Rose Garden (Dance Mix)
EXTD=
EXTT0=
EXTT1=
EXTT2=
EXTT3=
EXTT4=
EXTT5=
EXTT6=
EXTT7=
EXTT8=
EXTT9=
EXTT10=
EXTT11=
EXTT12=
EXTT13=
PLAYORDER=
